<svg xmlns="http://www.w3.org/2000/svg" width="16" height="16" viewBox="0 0 16 16" fill="none">
  <path d="M4.15525 5.57261C3.91184 5.7805 3.78266 6.09235 3.80778 6.41147C3.83027 6.69723 3.99474 6.90352 4.07675 7.00148C4.16868 7.11129 4.29398 7.23655 4.42145 7.36399L7.16232 10.1049C7.21846 10.161 7.28549 10.2281 7.3494 10.2824C7.42345 10.3452 7.53585 10.4289 7.69094 10.4793C7.89178 10.5446 8.10813 10.5446 8.30897 10.4793C8.46406 10.4289 8.57646 10.3452 8.65051 10.2824C8.71441 10.2281 8.78145 10.161 8.83757 10.1049L11.5785 7.36396C11.7059 7.23653 11.8312 7.11128 11.9232 7.00148C12.0052 6.90352 12.1696 6.69723 12.1921 6.41147C12.2172 6.09235 12.0881 5.7805 11.8447 5.57261C11.6267 5.38645 11.3645 5.35688 11.2373 5.3456C11.0946 5.33296 10.9175 5.33298 10.7372 5.33301H5.26271C5.08246 5.33298 4.90529 5.33296 4.76264 5.3456C4.63538 5.35688 4.37321 5.38645 4.15525 5.57261Z" fill="#757575"/>
</svg>