<svg xmlns="http://www.w3.org/2000/svg" width="14" height="14" viewBox="0 0 14 14" fill="none">
  <path d="M3.32216 9.17412C3.30018 8.8949 3.41321 8.62202 3.6262 8.44012C3.81691 8.27723 4.04631 8.25135 4.15767 8.24149C4.28248 8.23042 4.43751 8.23045 4.59523 8.23047H9.38541C9.54313 8.23045 9.69815 8.23042 9.82297 8.24149C9.93432 8.25135 10.1637 8.27723 10.3544 8.44012C10.5674 8.62202 10.6804 8.8949 10.6585 9.17412C10.6388 9.42416 10.4949 9.60467 10.4231 9.69038C10.3427 9.78644 10.2331 9.89602 10.1216 10.0075L7.72323 12.4059C7.67412 12.455 7.61547 12.5137 7.55955 12.5612C7.49476 12.6162 7.39641 12.6894 7.26071 12.7335C7.08497 12.7906 6.89567 12.7906 6.71993 12.7335C6.58422 12.6894 6.48587 12.6162 6.42108 12.5612C6.36516 12.5137 6.30651 12.455 6.25739 12.4058L3.85913 10.0076C3.74759 9.89607 3.63795 9.78646 3.55751 9.69039C3.48575 9.60467 3.34184 9.42416 3.32216 9.17412Z" fill="#BDBDBD"/>
  <path d="M10.6585 4.83267C10.6805 5.1119 10.5674 5.38477 10.3544 5.56668C10.1637 5.72957 9.93432 5.75544 9.82297 5.76531C9.69815 5.77637 9.54313 5.77635 9.38541 5.77633H4.59523C4.43751 5.77635 4.28248 5.77637 4.15767 5.76531C4.04631 5.75544 3.81691 5.72957 3.6262 5.56668C3.41321 5.38477 3.30019 5.1119 3.32216 4.83267C3.34184 4.58264 3.48575 4.40213 3.55751 4.31641C3.63792 4.22036 3.74753 4.11079 3.85903 3.99931L6.2574 1.60094C6.30651 1.55179 6.36517 1.49309 6.42108 1.44563C6.48587 1.39062 6.58422 1.31739 6.71993 1.27329C6.89567 1.21619 7.08497 1.21619 7.26071 1.27329C7.39641 1.31739 7.49476 1.39062 7.55955 1.44563C7.61547 1.4931 7.67413 1.5518 7.72324 1.60095L10.1215 3.99922C10.233 4.11073 10.3427 4.22033 10.4231 4.31641C10.4949 4.40213 10.6388 4.58263 10.6585 4.83267Z" fill="#BDBDBD"/>
</svg>