<svg width="20" height="20" viewBox="0 0 20 20" fill="none" xmlns="http://www.w3.org/2000/svg">
<path fill-rule="evenodd" clip-rule="evenodd" d="M10.0001 18.3332C14.6025 18.3332 18.3334 14.6022 18.3334 9.99984C18.3334 5.39746 14.6025 1.6665 10.0001 1.6665C5.39771 1.6665 1.66675 5.39746 1.66675 9.99984C1.66675 14.6022 5.39771 18.3332 10.0001 18.3332ZM10.8334 6.6665C10.8334 6.20627 10.4603 5.83317 10.0001 5.83317C9.53984 5.83317 9.16675 6.20627 9.16675 6.6665V9.1665H6.66675C6.20651 9.1665 5.83342 9.5396 5.83342 9.99984C5.83342 10.4601 6.20651 10.8332 6.66675 10.8332H9.16675V13.3332C9.16675 13.7934 9.53984 14.1665 10.0001 14.1665C10.4603 14.1665 10.8334 13.7934 10.8334 13.3332V10.8332H13.3334C13.7937 10.8332 14.1667 10.4601 14.1667 9.99984C14.1667 9.5396 13.7937 9.1665 13.3334 9.1665H10.8334V6.6665Z" fill="#177DFF"/>
</svg>
