<svg width="115" height="57" viewBox="0 0 115 57" fill="none" xmlns="http://www.w3.org/2000/svg">
<path d="M20.7712 39.8845C16.6894 40.2851 14.4796 38.06 10.3856 38.2896C6.19532 38.5246 3.75057 39.1987 0 41.1532V57H114.242V0C111.921 20.5007 110.314 48.8 103.856 50.4164C97.3974 52.0329 98.5333 21.7133 93.4703 20.5007C88.4073 19.2881 89.9305 34.9267 83.0847 35.1789C78.3741 35.3525 77.113 28.7655 72.6992 28.7926C68.2853 28.8197 67.7509 38.2417 62.3136 38.4346C57.504 38.6052 56.7397 31.6298 51.928 31.5475C47.2641 31.4677 46.149 36.9128 41.5424 37.6734C37.4872 38.3429 35.2465 35.5892 31.1568 35.9697C26.8592 36.3696 25.0668 39.4629 20.7712 39.8845Z" fill="url(#paint0_linear_193_4892)"/>
<defs>
<linearGradient id="paint0_linear_193_4892" x1="57.1208" y1="0" x2="57.1208" y2="57" gradientUnits="userSpaceOnUse">
<stop stop-color="#4AAF57" stop-opacity="0.2"/>
<stop offset="1" stop-color="#4AAF57" stop-opacity="0"/>
</linearGradient>
</defs>
</svg>
