<svg xmlns="http://www.w3.org/2000/svg" width="20" height="20" viewBox="0 0 20 20" fill="none">
  <path fill-rule="evenodd" clip-rule="evenodd" d="M3.8067 2.5C6.26887 2.50031 8.73104 2.5 11.1932 2.5C11.4035 2.49998 11.6083 2.49995 11.7818 2.51413C11.9723 2.52969 12.1971 2.56641 12.4233 2.68166C12.7369 2.84145 12.9918 3.09642 13.1516 3.41002C13.2669 3.63621 13.3036 3.86099 13.3192 4.05148C13.3333 4.22495 13.3333 4.42978 13.3333 4.6401L13.3333 6.19896C13.3333 6.33893 13.3372 6.52446 13.2993 6.70942C13.2691 6.85653 13.2191 6.99888 13.1508 7.13261C13.0721 7.28668 12.9656 7.41916 12.8811 7.52434C11.9178 8.72284 10.9358 9.90724 10.0014 11.1286C10.0014 11.1286 9.99995 13.1564 9.99995 14.1667C9.99995 14.429 9.87646 14.676 9.66662 14.8333L6.33329 17.3333C6.08077 17.5227 5.74293 17.5532 5.46061 17.412C5.17829 17.2709 4.99995 16.9823 4.99995 16.6667C4.99995 14.8253 4.99848 11.1286 4.99848 11.1286C4.03883 9.92704 3.08222 8.72293 2.11882 7.52433C2.03428 7.41915 1.92781 7.28668 1.84909 7.13261C1.78077 6.99888 1.73084 6.85653 1.70065 6.70942C1.66587 6.53995 1.66626 6.36998 1.66656 6.23504C1.66778 5.70339 1.66668 5.1707 1.66662 4.64009C1.66659 4.42977 1.66657 4.22494 1.68074 4.05148C1.6963 3.86099 1.73303 3.63621 1.84828 3.41002C2.00806 3.09642 2.26303 2.84145 2.57664 2.68166C2.80282 2.56641 3.0276 2.52969 3.21809 2.51413C3.39156 2.49995 3.59639 2.49998 3.8067 2.5ZM15 5C15 4.53977 15.373 4.16667 15.8333 4.16667H17.5C17.9602 4.16667 18.3333 4.53977 18.3333 5C18.3333 5.46024 17.9602 5.83334 17.5 5.83334H15.8333C15.373 5.83334 15 5.46024 15 5ZM12.5 10C12.5 9.53977 12.873 9.16667 13.3333 9.16667H17.5C17.9602 9.16667 18.3333 9.53977 18.3333 10C18.3333 10.4602 17.9602 10.8333 17.5 10.8333H13.3333C12.873 10.8333 12.5 10.4602 12.5 10ZM12.5 15C12.5 14.5398 12.873 14.1667 13.3333 14.1667H17.5C17.9602 14.1667 18.3333 14.5398 18.3333 15C18.3333 15.4602 17.9602 15.8333 17.5 15.8333H13.3333C12.873 15.8333 12.5 15.4602 12.5 15Z" fill="#424242"/>
</svg>