<svg width="18" height="18" viewBox="0 0 18 18" fill="none" xmlns="http://www.w3.org/2000/svg">
<path fill-rule="evenodd" clip-rule="evenodd" d="M9.1034 3.41895L9.12007 3.41895C9.54212 3.41894 9.88253 3.41894 10.1582 3.44146C10.442 3.46465 10.6913 3.51365 10.922 3.63117C11.2884 3.81784 11.5862 4.11572 11.7729 4.48209C11.8904 4.71274 11.9394 4.96204 11.9626 5.24588C11.9807 5.46753 11.9843 5.73106 11.985 6.04522C13.0857 6.22035 13.9402 7.11754 14.0506 8.23903C14.0625 8.35988 14.0625 8.49817 14.0625 8.71561V8.71565L14.0625 8.74039V10.8692V10.8864V10.8864C14.0625 11.4535 14.0625 11.9028 14.0329 12.2651C14.0026 12.6355 13.9395 12.9489 13.7937 13.2351C13.5572 13.6992 13.1799 14.0765 12.7158 14.3129C12.4297 14.4587 12.1162 14.5219 11.7458 14.5521C11.3836 14.5817 10.9342 14.5817 10.3672 14.5817H10.3672H10.35H7.65H7.63284H7.63281C7.06576 14.5817 6.61638 14.5817 6.25417 14.5521C5.88376 14.5219 5.57033 14.4587 5.28415 14.3129C4.82008 14.0765 4.44277 13.6992 4.20632 13.2351C4.0605 12.9489 3.99735 12.6355 3.96709 12.2651C3.93749 11.9028 3.9375 11.4534 3.9375 10.8864V10.8864V10.8692V9.72693V9.70979C3.9375 9.14272 3.93749 8.69332 3.96709 8.3311C3.99735 7.96068 4.0605 7.64726 4.20632 7.36107C4.44277 6.897 4.82008 6.5197 5.28415 6.28324C5.50639 6.17 5.74506 6.10662 6.01409 6.06978C6.01466 5.74476 6.01791 5.47328 6.03649 5.24588C6.05968 4.96204 6.10867 4.71274 6.2262 4.48209C6.41287 4.11572 6.71074 3.81784 7.07712 3.63117C7.30777 3.51365 7.55707 3.46465 7.8409 3.44146C8.11657 3.41894 8.45698 3.41894 8.87904 3.41895L8.8957 3.41895H9.1034ZM6.79309 6.01947C7.0403 6.01442 7.31847 6.01443 7.6328 6.01443H7.63287H7.65H9H11.206C11.2051 5.71907 11.2014 5.49399 11.1864 5.3093C11.1671 5.07363 11.1312 4.93823 11.0789 4.83568C10.9669 4.61585 10.7882 4.43713 10.5684 4.32513C10.4658 4.27287 10.3304 4.23698 10.0948 4.21772C9.85456 4.19809 9.54602 4.19779 9.1034 4.19779H8.8957C8.45308 4.19779 8.14454 4.19809 7.90433 4.21772C7.66866 4.23698 7.53326 4.27287 7.43071 4.32513C7.21088 4.43713 7.03216 4.61585 6.92015 4.83568C6.8679 4.93823 6.832 5.07363 6.81275 5.3093C6.79757 5.49504 6.79395 5.72163 6.79309 6.01947ZM9 8.61035C9.21507 8.61035 9.38942 8.7847 9.38942 8.99978V10.5575C9.38942 10.7725 9.21507 10.9469 9 10.9469C8.78493 10.9469 8.61058 10.7725 8.61058 10.5575V8.99978C8.61058 8.7847 8.78493 8.61035 9 8.61035Z" fill="#424242"/>
</svg>
