<svg width="18" height="19" viewBox="0 0 18 19" fill="none" xmlns="http://www.w3.org/2000/svg">
<path d="M13.8185 2.66829C14.4804 2.0064 15.5535 2.0064 16.2154 2.66829C16.8773 3.33018 16.8773 4.40331 16.2154 5.0652L12.3274 8.95318C11.9692 9.3114 11.7555 9.52518 11.5094 9.69657C11.2911 9.84855 11.0557 9.97421 10.808 10.0709C10.5286 10.18 10.232 10.2386 9.73507 10.3368L8.71199 10.5389C8.58695 10.5636 8.45792 10.5231 8.36942 10.4314C8.28092 10.3397 8.24507 10.2093 8.27424 10.0852L8.52084 9.03625C8.62946 8.5741 8.69429 8.29829 8.80325 8.03859C8.89988 7.80826 9.02179 7.58936 9.16673 7.38594C9.33015 7.15656 9.53051 6.95622 9.86623 6.62054L13.8185 2.66829Z" fill="#212121"/>
<path fill-rule="evenodd" clip-rule="evenodd" d="M9.00282 12.0105L10.1005 11.7936C10.529 11.7092 10.9472 11.6268 11.3535 11.4682C11.7113 11.3285 12.0514 11.147 12.3666 10.9275C12.7246 10.6782 13.0257 10.3767 13.3343 10.0677L16.0292 7.37278C16.1149 7.48352 16.1905 7.60257 16.2548 7.72864C16.5 8.20995 16.5 8.84 16.5 10.1001V13.4001C16.5 14.6602 16.5 15.2903 16.2548 15.7716C16.039 16.195 15.6948 16.5392 15.2715 16.7549C14.7902 17.0001 14.1601 17.0001 12.9 17.0001H5.1C3.83988 17.0001 3.20982 17.0001 2.72852 16.7549C2.30516 16.5392 1.96095 16.195 1.74524 15.7716C1.5 15.2903 1.5 14.6602 1.5 13.4001V10.1001C1.5 8.84 1.5 8.20995 1.74524 7.72864C1.96095 7.30528 2.30516 6.96107 2.72852 6.74536C3.20982 6.50012 3.83988 6.50012 5.1 6.50012H7.95615L7.94511 6.51554C7.73575 6.80939 7.55967 7.12556 7.42008 7.45826C7.26161 7.83598 7.1704 8.22502 7.07694 8.62367L6.81408 9.74195C6.66823 10.3623 6.84748 11.0143 7.28998 11.4729C7.73248 11.9316 8.37763 12.134 9.00282 12.0105ZM5.25 11.7501C5.25 12.1643 4.91421 12.5001 4.5 12.5001C4.08579 12.5001 3.75 12.1643 3.75 11.7501C3.75 11.3359 4.08579 11.0001 4.5 11.0001C4.91421 11.0001 5.25 11.3359 5.25 11.7501Z" fill="#212121"/>
</svg>
