<svg width="20" height="20" viewBox="0 0 20 20" fill="none" xmlns="http://www.w3.org/2000/svg">
<g clip-path="url(#clip0_599_7910)">
<path d="M15.5251 7.15775C16.065 8.13333 16.3729 9.25439 16.3729 10.4461C16.3729 14.203 13.3164 17.2595 9.5595 17.2595C5.80256 17.2595 2.74612 14.203 2.74612 10.4461C2.74612 6.68928 5.80256 3.63276 9.5595 3.63276C10.7213 3.63276 11.8159 3.92535 12.774 4.44023L14.1771 3.03718C12.8053 2.17858 11.2178 1.71875 9.55946 1.71875C7.22831 1.71875 5.03663 2.62655 3.38823 4.27495C1.73983 5.92335 0.832031 8.11499 0.832031 10.4462C0.832031 12.7773 1.73983 14.969 3.38823 16.6174C5.03667 18.2658 7.22831 19.1736 9.55946 19.1736C11.8906 19.1736 14.0823 18.2658 15.7307 16.6174C17.3791 14.969 18.2869 12.7773 18.2869 10.4462C18.2869 8.75957 17.8114 7.14616 16.9243 5.7585L15.5251 7.15775Z" fill="#212121"/>
<path d="M10.2272 8.83315C9.59899 8.5757 8.84728 8.6994 8.33774 9.20898C7.65793 9.88879 7.65793 10.9854 8.33774 11.6599C9.01727 12.3395 10.1139 12.3395 10.7883 11.6599C11.2982 11.15 11.4216 10.3984 11.1642 9.77044L16.1429 4.7917L16.9721 4.89977L19.1652 2.70633L17.5075 2.48513L17.286 0.827148L15.0926 3.02562L15.2009 3.85449L10.2272 8.83315Z" fill="#212121"/>
<path d="M12.8061 9.87689C12.8389 10.0649 12.8554 10.2554 12.8554 10.4462C12.8554 12.2636 11.3769 13.7421 9.55952 13.7421C7.74218 13.7421 6.26362 12.2636 6.26362 10.4462C6.26362 8.6289 7.74214 7.15038 9.55952 7.15038C9.71934 7.15038 9.87645 7.16204 10.0303 7.18411L11.5731 5.6413C10.9533 5.3806 10.273 5.23633 9.55952 5.23633C6.68677 5.23633 4.34961 7.57349 4.34961 10.4462C4.34961 13.319 6.68677 15.6562 9.55952 15.6562C12.4323 15.6562 14.7695 13.319 14.7695 10.4462C14.7695 9.70206 14.6123 8.99402 14.3299 8.353L12.8061 9.87689Z" fill="#212121"/>
</g>
<defs>
<clipPath id="clip0_599_7910">
<rect width="20" height="20" fill="white"/>
</clipPath>
</defs>
</svg>
