<svg xmlns="http://www.w3.org/2000/svg" width="16" height="16" viewBox="0 0 16 16" fill="none">
  <g clip-path="url(#clip0_4051_2262)">
    <path d="M8 16C12.4183 16 16 12.4183 16 8C16 3.58172 12.4183 0 8 0C3.58172 0 0 3.58172 0 8C0 12.4183 3.58172 16 8 16Z" fill="url(#paint0_linear_4051_2262)"/>
    <path d="M6.24613 5.41105C6.24991 5.41779 6.25504 5.42368 6.2612 5.42834C6.26736 5.43301 6.27442 5.43635 6.28193 5.43815C6.28945 5.43996 6.29725 5.44018 6.30486 5.43882C6.31247 5.43746 6.31971 5.43454 6.32613 5.43025L7.66213 4.60385C7.6873 4.59033 7.70883 4.57091 7.72485 4.54726C7.74088 4.52361 7.75094 4.49642 7.75416 4.46804C7.75738 4.43965 7.75368 4.4109 7.74337 4.38426C7.73305 4.35761 7.71643 4.33386 7.69493 4.31505L6.57493 3.23425C6.5643 3.22369 6.54992 3.21777 6.53493 3.21777C6.51995 3.21777 6.50557 3.22369 6.49493 3.23425L6.39173 3.34065C6.35947 3.37289 6.33387 3.41118 6.3164 3.45332C6.29894 3.49546 6.28995 3.54063 6.28995 3.58625C6.28995 3.63186 6.29894 3.67703 6.3164 3.71917C6.33387 3.76132 6.35947 3.7996 6.39173 3.83185L6.82853 4.23185C6.84693 4.24888 6.86106 4.27 6.86979 4.29349C6.87852 4.31699 6.88161 4.34221 6.87881 4.36712C6.87601 4.39203 6.86739 4.41594 6.85366 4.43691C6.83992 4.45788 6.82145 4.47533 6.79973 4.48785L6.27813 4.80785C6.23905 4.83181 6.20511 4.8633 6.17828 4.90048C6.15145 4.93766 6.13227 4.9798 6.12185 5.02445C6.11144 5.0691 6.10999 5.11537 6.11759 5.16059C6.12519 5.2058 6.14169 5.24906 6.16613 5.28785L6.24613 5.41105Z" fill="url(#paint1_linear_4051_2262)"/>
    <path d="M8.33334 4.96435C8.2956 4.92939 8.24734 4.90792 8.1961 4.90329C8.14487 4.89866 8.09354 4.91113 8.05014 4.93875L6.66694 5.82275C6.52599 5.91288 6.4062 6.03242 6.3158 6.17319C6.22539 6.31396 6.1665 6.47262 6.14317 6.63828C6.11984 6.80395 6.13262 6.9727 6.18064 7.13296C6.22865 7.29323 6.31076 7.44121 6.42134 7.56675L7.26694 8.52675C7.42871 8.70468 7.54494 8.91917 7.60569 9.15184C7.66643 9.38452 7.66988 9.62845 7.61574 9.86275C7.61574 9.86275 7.55174 10.4892 7.18454 11.9428C7.16132 12.0343 7.16357 12.1305 7.19104 12.2209C7.21851 12.3113 7.27017 12.3925 7.34042 12.4557C7.41067 12.5188 7.49686 12.5616 7.58965 12.5793C7.68245 12.5971 7.77833 12.5891 7.86694 12.5564C10.5229 11.5476 10.5205 8.85075 10.5205 8.85075C10.5997 7.11155 8.83974 5.43075 8.33334 4.96435ZM8.65334 11.026C8.60601 11.0675 8.54674 11.093 8.48403 11.0988C8.42132 11.1046 8.35838 11.0904 8.30421 11.0583C8.25005 11.0262 8.20745 10.9777 8.1825 10.9199C8.15756 10.862 8.15155 10.7978 8.16534 10.7364L8.31334 10.086C8.39713 9.72471 8.39198 9.34853 8.29834 8.98972C8.2047 8.6309 8.02536 8.30018 7.77574 8.02595L6.89574 7.00435C6.85307 6.95498 6.82156 6.89698 6.80335 6.83431C6.78514 6.77165 6.78067 6.70579 6.79024 6.64124C6.79981 6.57669 6.82319 6.51496 6.85879 6.46028C6.8944 6.40559 6.94138 6.35922 6.99654 6.32435C7.34534 6.10275 7.75494 5.84435 7.96694 5.70915C7.99826 5.68927 8.03529 5.68037 8.07223 5.68384C8.10916 5.68732 8.14388 5.70298 8.17094 5.72835C10.8893 8.29075 9.58374 10.2228 8.65254 11.026H8.65334Z" fill="url(#paint2_linear_4051_2262)"/>
  </g>
  <defs>
    <linearGradient id="paint0_linear_4051_2262" x1="8" y1="16" x2="8" y2="0" gradientUnits="userSpaceOnUse">
      <stop stop-color="#990E37"/>
      <stop offset="1" stop-color="#FF3B73"/>
    </linearGradient>
    <linearGradient id="paint1_linear_4051_2262" x1="5.91813" y1="5.08625" x2="7.19173" y2="3.81185" gradientUnits="userSpaceOnUse">
      <stop stop-color="#E6E4E6"/>
      <stop offset="1" stop-color="#FFFEFF"/>
    </linearGradient>
    <linearGradient id="paint2_linear_4051_2262" x1="5.79414" y1="10.9084" x2="10.0429" y2="6.65955" gradientUnits="userSpaceOnUse">
      <stop stop-color="#E6E4E6"/>
      <stop offset="1" stop-color="#FFFEFF"/>
    </linearGradient>
    <clipPath id="clip0_4051_2262">
      <rect width="16" height="16" fill="white"/>
    </clipPath>
  </defs>
</svg>