<svg width="16" height="16" viewBox="0 0 16 16" fill="none" xmlns="http://www.w3.org/2000/svg">
<path d="M2.66634 4.66667C2.66634 3.19391 3.86025 2 5.33301 2C6.80577 2 7.99967 3.19391 7.99967 4.66667C7.99967 6.13943 6.80577 7.33333 5.33301 7.33333C3.86025 7.33333 2.66634 6.13943 2.66634 4.66667Z" fill="#177DFF"/>
<path d="M1.33301 12C1.33301 9.79086 3.12387 8 5.33301 8C7.54215 8 9.33301 9.79086 9.33301 12V13.3333C9.33301 13.7015 9.03453 14 8.66634 14H1.99967C1.63148 14 1.33301 13.7015 1.33301 13.3333V12Z" fill="#177DFF"/>
<path d="M10.6663 4C9.56177 4 8.66634 4.89543 8.66634 6C8.66634 7.10457 9.56177 8 10.6663 8C11.7709 8 12.6663 7.10457 12.6663 6C12.6663 4.89543 11.7709 4 10.6663 4Z" fill="#177DFF"/>
<path d="M10.6663 8.66667C10.0553 8.66667 9.47833 8.81125 8.96331 9.06735C9.61149 9.86872 9.99971 10.889 9.99971 12V13.3333C9.99971 13.5762 9.93478 13.8039 9.82133 14H13.9997C14.3679 14 14.6663 13.7015 14.6663 13.3333V12.6667C14.6663 10.3187 12.8592 8.66667 10.6663 8.66667Z" fill="#177DFF"/>
</svg>
