<svg xmlns="http://www.w3.org/2000/svg" width="20" height="20" viewBox="0 0 20 20" fill="none">
  <path d="M13 13.5C13 15.2239 12.3152 16.8772 11.0962 18.0962C9.87721 19.3152 8.22391 20 6.5 20C4.77609 20 3.12279 19.3152 1.90381 18.0962C0.684819 16.8772 0 15.2239 0 13.5C0 11.7761 0.684819 10.1228 1.90381 8.90381C3.12279 7.68482 4.77609 7 6.5 7C8.22391 7 9.87721 7.68482 11.0962 8.90381C12.3152 10.1228 13 11.7761 13 13.5Z" fill="#177DFF"/>
  <path d="M20 6.5C20 9.76 17.6 12.45 14.48 12.92V12.86C14.17 8.98 11.02 5.83 7.11 5.52H7.08C7.31319 3.98422 8.08908 2.58287 9.26694 1.57013C10.4448 0.557392 11.9466 0.000335248 13.5 0C14.3536 0 15.1988 0.168127 15.9874 0.494783C16.7761 0.821438 17.4926 1.30023 18.0962 1.90381C18.6998 2.50739 19.1786 3.22394 19.5052 4.01256C19.8319 4.80117 20 5.64641 20 6.5ZM3.59 0H1C0.45 0 0 0.45 0 1V3.59C0 4.48 1.08 4.93 1.71 4.3L4.3 1.71C4.92 1.08 4.48 0 3.59 0ZM16.41 20H19C19.55 20 20 19.55 20 19V16.41C20 15.52 18.92 15.07 18.29 15.7L15.7 18.29C15.08 18.92 15.52 20 16.41 20Z" fill="#177DFF"/>
</svg>