<svg xmlns="http://www.w3.org/2000/svg" width="18" height="18" viewBox="0 0 18 18" fill="none">
  <path fill-rule="evenodd" clip-rule="evenodd" d="M9.35241 1.65172C9.11921 1.61479 8.88166 1.61479 8.64846 1.65172C8.38301 1.69377 8.13452 1.79696 7.85269 1.91401L4.80115 3.178C4.51911 3.29452 4.27043 3.39725 4.053 3.55523C3.86198 3.69401 3.69401 3.86198 3.55523 4.053C3.39725 4.27043 3.29452 4.5191 3.178 4.80115L1.91401 7.85269C1.79696 8.13452 1.69377 8.38301 1.65172 8.64846C1.61479 8.88166 1.61479 9.11921 1.65172 9.35241C1.69377 9.61786 1.79697 9.86635 1.91401 10.1482L3.178 13.1997C3.29452 13.4818 3.39725 13.7304 3.55523 13.9479C3.69401 14.1389 3.86198 14.3069 4.053 14.4456C4.27042 14.6036 4.51909 14.7063 4.80112 14.8229L7.8527 16.0869C8.13452 16.2039 8.38302 16.3071 8.64846 16.3491C8.88166 16.3861 9.11921 16.3861 9.35241 16.3491C9.61787 16.3071 9.86636 16.2039 10.1482 16.0869L13.1997 14.8229C13.4818 14.7064 13.7304 14.6036 13.9479 14.4456C14.1389 14.3069 14.3069 14.1389 14.4456 13.9479C14.6036 13.7304 14.7063 13.4818 14.8229 13.1997L16.0869 10.1482C16.2039 9.86635 16.3071 9.61785 16.3491 9.35241C16.3861 9.11921 16.3861 8.88166 16.3491 8.64846C16.3071 8.383 16.2039 8.13451 16.0869 7.85268L14.8229 4.80115C14.7064 4.51911 14.6036 4.27042 14.4456 4.053C14.3069 3.86198 14.1389 3.69401 13.9479 3.55523C13.7304 3.39725 13.4818 3.29452 13.1997 3.178L10.1482 1.91401C9.86635 1.79696 9.61786 1.69377 9.35241 1.65172ZM9.00024 5.25043C9.41446 5.25043 9.75024 5.58621 9.75024 6.00043V9.75043C9.75024 10.1646 9.41446 10.5004 9.00024 10.5004C8.58603 10.5004 8.25024 10.1646 8.25024 9.75043V6.00043C8.25024 5.58621 8.58603 5.25043 9.00024 5.25043ZM9.75024 12.0004C9.75024 12.4146 9.41446 12.7504 9.00024 12.7504C8.58603 12.7504 8.25024 12.4146 8.25024 12.0004C8.25024 11.5862 8.58603 11.2504 9.00024 11.2504C9.41446 11.2504 9.75024 11.5862 9.75024 12.0004Z" fill="#9E9E9E"/>
</svg>