<svg xmlns="http://www.w3.org/2000/svg" width="20" height="20" viewBox="0 0 20 20" fill="none">
  <path d="M10 20C15.5417 20 20 15.5417 20 10C20 4.4583 15.5417 0 10 0C4.4583 0 0 4.4583 0 10C0 15.5417 4.4583 20 10 20Z" fill="#2775CA"/>
  <path d="M12.7498 11.584C12.7498 10.1257 11.8748 9.62568 10.1248 9.41738C8.8748 9.25068 8.6248 8.91738 8.6248 8.33398C8.6248 7.75058 9.0415 7.37568 9.8748 7.37568C10.6248 7.37568 11.0415 7.62568 11.2498 8.25068C11.2915 8.37568 11.4165 8.45898 11.5415 8.45898H12.2081C12.3748 8.45898 12.4998 8.33398 12.4998 8.16738V8.12568C12.3331 7.20898 11.5831 6.50068 10.6248 6.41738V5.41738C10.6248 5.25068 10.4998 5.12568 10.2915 5.08398H9.6665C9.4998 5.08398 9.3748 5.20898 9.3331 5.41738V6.37568C8.0831 6.54238 7.2915 7.37568 7.2915 8.41738C7.2915 9.79238 8.1248 10.334 9.8748 10.5424C11.0415 10.7507 11.4165 11.0007 11.4165 11.6674C11.4165 12.3341 10.8331 12.7924 10.0415 12.7924C8.9581 12.7924 8.5831 12.334 8.4581 11.709C8.4165 11.5424 8.2915 11.459 8.1665 11.459H7.4581C7.2915 11.459 7.1665 11.584 7.1665 11.7507V11.7924C7.3331 12.834 7.9998 13.584 9.3748 13.7924V14.7924C9.3748 14.959 9.4998 15.084 9.7081 15.1257H10.3331C10.4998 15.1257 10.6248 15.0007 10.6665 14.7924V13.7924C11.9165 13.584 12.7498 12.709 12.7498 11.584Z" fill="white"/>
  <path fill-rule="evenodd" clip-rule="evenodd" d="M4.16654 7.95762C2.95814 11.166 4.62484 14.791 7.87484 15.9576C7.99984 16.041 8.12484 16.2076 8.12484 16.3326V16.916C8.12484 16.9993 8.12484 17.041 8.08314 17.0826C8.04154 17.2493 7.87484 17.3326 7.70814 17.2493C5.37484 16.4993 3.58314 14.7076 2.83314 12.3743C1.58314 8.41602 3.74984 4.20762 7.70814 2.95762C7.74984 2.91602 7.83314 2.91602 7.87484 2.91602C8.04154 2.95762 8.12484 3.08262 8.12484 3.24932V3.83262C8.12484 4.04102 8.04154 4.16602 7.87484 4.24932C6.16654 4.87432 4.79154 6.20762 4.16654 7.95762ZM11.9165 3.12434C11.9581 2.95764 12.1248 2.87434 12.2915 2.95764C14.5831 3.70764 16.4165 5.49934 17.1665 7.87434C18.4165 11.8326 16.2498 16.041 12.2915 17.291C12.2498 17.3326 12.1665 17.3326 12.1248 17.3326C11.9581 17.291 11.8748 17.166 11.8748 16.9993V16.416C11.8748 16.2076 11.9581 16.0826 12.1248 15.9993C13.8331 15.3743 15.2081 14.041 15.8331 12.291C17.0415 9.08264 15.3748 5.45764 12.1248 4.29104C11.9998 4.20764 11.8748 4.04104 11.8748 3.87434V3.29104C11.8748 3.20764 11.8748 3.16604 11.9165 3.12434Z" fill="white"/>
</svg>