<svg width="20" height="20" viewBox="0 0 20 20" fill="none" xmlns="http://www.w3.org/2000/svg">
<path fill-rule="evenodd" clip-rule="evenodd" d="M9.99996 18.3337C14.6023 18.3337 18.3333 14.6027 18.3333 10.0003C18.3333 5.39795 14.6023 1.66699 9.99996 1.66699C5.39759 1.66699 1.66663 5.39795 1.66663 10.0003C1.66663 14.6027 5.39759 18.3337 9.99996 18.3337ZM10.8333 6.66699C10.8333 6.20676 10.4602 5.83366 9.99996 5.83366C9.53972 5.83366 9.16663 6.20676 9.16663 6.66699V9.16699H6.66663C6.20639 9.16699 5.83329 9.54009 5.83329 10.0003C5.83329 10.4606 6.20639 10.8337 6.66663 10.8337H9.16663V13.3337C9.16663 13.7939 9.53972 14.167 9.99996 14.167C10.4602 14.167 10.8333 13.7939 10.8333 13.3337V10.8337H13.3333C13.7935 10.8337 14.1666 10.4606 14.1666 10.0003C14.1666 9.54009 13.7935 9.16699 13.3333 9.16699H10.8333V6.66699Z" fill="#177DFF"/>
</svg>
