<svg width="20" height="20" viewBox="0 0 20 20" fill="none" xmlns="http://www.w3.org/2000/svg">
<path fill-rule="evenodd" clip-rule="evenodd" d="M12.9167 1.66699H11.0833C9.6832 1.66699 8.98313 1.66699 8.44835 1.93948C7.97795 2.17916 7.5955 2.56161 7.35581 3.03202C7.08333 3.5668 7.08333 4.26686 7.08333 5.66699V10.167C7.08333 11.5671 7.08333 12.2672 7.35581 12.802C7.5955 13.2724 7.97795 13.6548 8.44835 13.8945C8.98313 14.167 9.6832 14.167 11.0833 14.167H13.0833C14.4835 14.167 15.1835 14.167 15.7183 13.8945C16.1887 13.6548 16.5712 13.2724 16.8108 12.802C17.0833 12.2672 17.0833 11.5671 17.0833 10.167V5.83366L12.9167 1.66699ZM12.75 6.66699C12.5166 6.66699 12.4 6.66699 12.3108 6.62158C12.2324 6.58163 12.1687 6.51789 12.1287 6.43949C12.0833 6.35036 12.0833 6.23368 12.0833 6.00033V2.91699L15.8333 6.66699H12.75Z" fill="#9E9E9E"/>
<path d="M6.25 5.83366H5.41666C4.03595 5.83366 2.91666 6.95295 2.91666 8.33366V15.8337C2.91666 17.2144 4.03595 18.3337 5.41666 18.3337H10.4167C11.7974 18.3337 12.9167 17.2144 12.9167 15.8337V15.0003H11.5833C9.71649 15.0003 8.78307 15.0003 8.07003 14.637C7.44282 14.3174 6.93289 13.8075 6.61331 13.1803C6.25 12.4673 6.25 11.5338 6.25 9.66699V5.83366Z" fill="#9E9E9E"/>
</svg>
