<svg xmlns="http://www.w3.org/2000/svg" width="32" height="32" viewBox="0 0 32 32" fill="none">
  <path d="M31.5177 19.8705C29.3808 28.442 20.6992 33.6584 12.1267 31.521C3.55778 29.3841 -1.65868 20.702 0.479177 12.1312C2.61515 3.5587 11.2967 -1.65814 19.8666 0.478775C28.4385 2.61569 33.6546 11.2987 31.5175 19.8706L31.5176 19.8705H31.5177Z" fill="#50AF95"/>
  <path fill-rule="evenodd" clip-rule="evenodd" d="M18.0244 17.8136V17.8136C17.9113 17.8221 17.3267 17.857 16.0229 17.857C14.9858 17.857 14.2495 17.8259 13.9911 17.8136V17.8136C9.98336 17.6373 6.99189 16.9396 6.99189 16.1043C6.99189 15.269 9.98336 14.5723 13.9911 14.3932V17.1188C14.2532 17.1376 15.0037 17.1819 16.0408 17.1819C17.2852 17.1819 17.9084 17.1301 18.0206 17.1197V14.395C22.0199 14.5732 25.0048 15.2709 25.0048 16.1043C25.0048 16.9377 22.0209 17.6354 18.0206 17.8127V17.8127L18.0244 17.8136ZM18.0244 14.1124V11.6734H23.6057V7.9541H8.40985V11.6734H13.9902V14.1114C9.45446 14.3198 6.04346 15.2183 6.04346 16.2949C6.04346 17.3716 9.45446 18.2691 13.9902 18.4784V26.2941H18.0235V18.4756C22.5488 18.2673 25.9542 17.3697 25.9542 16.294C25.9542 15.2183 22.5517 14.3207 18.0235 14.1114V14.1114L18.0244 14.1124Z" fill="white"/>
</svg>