<svg xmlns="http://www.w3.org/2000/svg" width="20" height="20" viewBox="0 0 20 20" fill="none">
  <path fill-rule="evenodd" clip-rule="evenodd" d="M9.99984 1.66699C5.39746 1.66699 1.6665 5.39795 1.6665 10.0003C1.6665 14.6027 5.39746 18.3337 9.99984 18.3337C14.6022 18.3337 18.3332 14.6027 18.3332 10.0003C18.3332 5.39795 14.6022 1.66699 9.99984 1.66699ZM5.28567 5.2864C4.07931 6.49282 3.33317 8.15944 3.33317 10.0003C3.33317 11.8412 4.07931 13.5078 5.28567 14.7142L9.99959 10.0003L14.7138 14.7145C15.9203 13.5081 16.6665 11.8413 16.6665 10.0003C16.6665 8.15931 15.9203 6.4926 14.7138 5.28616L9.99959 10.0003L5.28567 5.2864Z" fill="#212121"/>
</svg>