<svg xmlns="http://www.w3.org/2000/svg" width="20" height="20" viewBox="0 0 20 20" fill="none">
  <path d="M19.701 12.419C18.3654 17.7762 12.9395 21.0365 7.58164 19.7006C2.22605 18.365 -1.03423 12.9387 0.301927 7.58197C1.63691 2.22419 7.06288 -1.03634 12.4191 0.299234C17.7765 1.63481 21.0366 7.0617 19.7009 12.4191L19.701 12.419H19.701Z" fill="#F7931A"/>
  <path fill-rule="evenodd" clip-rule="evenodd" d="M14.4108 8.57577C14.6099 7.24499 13.5967 6.52964 12.2113 6.05243L12.6607 4.24977L11.5634 3.97634L11.1259 5.73154C10.8374 5.65959 10.5411 5.5918 10.2467 5.52459L10.6874 3.7578L9.59071 3.48438L9.14103 5.28645C8.9023 5.2321 8.66783 5.17838 8.44035 5.12178L8.44162 5.11611L6.92837 4.73822L6.63646 5.91024C6.63646 5.91024 7.45059 6.09686 7.43344 6.10835C7.8778 6.21926 7.95815 6.51341 7.94481 6.74657L7.43285 8.80022C7.46345 8.80799 7.50314 8.81923 7.54693 8.83683L7.51511 8.82889L7.51507 8.82888C7.48799 8.8221 7.45984 8.81506 7.43094 8.80814L6.71335 11.685C6.65904 11.82 6.52121 12.0226 6.21053 11.9457C6.22153 11.9616 5.41297 11.7467 5.41297 11.7467L4.86816 13.0027L6.29617 13.3587C6.45255 13.3979 6.60708 13.4382 6.76005 13.4781L6.76014 13.4781C6.867 13.506 6.9731 13.5336 7.07853 13.5606L6.62444 15.3839L7.7205 15.6574L8.17019 13.8534C8.46962 13.9347 8.76021 14.0097 9.04469 14.0803L8.59651 15.8758L9.6939 16.1492L10.1479 14.3293C12.0191 14.6835 13.4261 14.5407 14.0183 12.8482C14.4955 11.4855 13.9946 10.6996 13.0101 10.187C13.7272 10.0217 14.2672 9.55007 14.4112 8.57591L14.4109 8.57567L14.4108 8.57577ZM11.9036 12.0912C11.5925 13.3414 9.63557 12.8245 8.74023 12.588C8.65969 12.5667 8.58774 12.5477 8.52634 12.5325L9.12893 10.1169C9.20374 10.1356 9.29517 10.1561 9.39875 10.1793C10.3249 10.3872 12.2224 10.813 11.9036 12.0912H11.9036ZM9.58455 9.05891C10.331 9.25813 11.9594 9.69271 12.243 8.55645H12.2431C12.5327 7.39433 10.9502 7.04396 10.1773 6.87284C10.0903 6.85359 10.0136 6.83661 9.95096 6.821L9.40464 9.01181C9.45622 9.02466 9.51675 9.04082 9.58455 9.05891Z" fill="white"/>
</svg>