<svg xmlns="http://www.w3.org/2000/svg" width="19" height="20" viewBox="0 0 19 20" fill="none">
  <path d="M18.2512 13.5981C18.1281 13.1386 17.8334 12.7545 17.4214 12.5167C17.3227 12.4597 17.2187 12.4123 17.1109 12.3752V7.62406C17.2187 7.58691 17.3226 7.53953 17.4213 7.48256C17.8334 7.24469 18.1281 6.86064 18.2512 6.4011C18.3743 5.9416 18.3111 5.46164 18.0732 5.04963C17.7561 4.50022 17.1646 4.1589 16.5297 4.1589C16.2174 4.15918 15.9107 4.24154 15.6403 4.39773C15.5415 4.45472 15.4484 4.52095 15.3621 4.59554L11.2481 2.22034C11.2698 2.10841 11.2807 1.99466 11.2807 1.88065C11.2807 0.898573 10.4817 0.0996094 9.49961 0.0996094C8.51754 0.0996094 7.71857 0.898573 7.71857 1.88065C7.71857 1.99678 7.72975 2.11036 7.7511 2.22034L3.63709 4.59554C3.55083 4.52094 3.45768 4.45471 3.35888 4.39773C3.08847 4.24154 2.78175 4.15918 2.46946 4.1589C1.83459 4.1589 1.24314 4.50022 0.925909 5.04963C0.688038 5.46164 0.624847 5.94156 0.747979 6.4011C0.871111 6.8606 1.16583 7.24469 1.5778 7.48252C1.67653 7.53951 1.78049 7.58691 1.88826 7.62406V12.3752C1.78051 12.4123 1.67656 12.4597 1.57784 12.5167C1.16583 12.7545 0.871111 13.1386 0.748018 13.5981C0.624886 14.0576 0.688076 14.5376 0.925948 14.9496C1.24314 15.499 1.83459 15.8403 2.46946 15.8403C2.78175 15.84 3.08847 15.7577 3.35888 15.6015C3.45767 15.5445 3.55082 15.4783 3.63709 15.4037L7.7511 17.7789C7.72941 17.8908 7.71852 18.0046 7.71857 18.1186C7.71857 19.1006 8.51754 19.8996 9.49961 19.8996C10.4817 19.8996 11.2807 19.1006 11.2807 18.1186C11.2807 18.0024 11.2695 17.8889 11.2481 17.7789L15.3621 15.4037C15.4484 15.4783 15.5416 15.5445 15.6403 15.6015C15.9108 15.7577 16.2175 15.84 16.5298 15.8403C17.1646 15.8403 17.7561 15.499 18.0733 14.9496C18.3112 14.5376 18.3743 14.0577 18.2512 13.5981ZM9.49961 16.3376C9.05338 16.3376 8.64492 16.5025 8.33207 16.7747L4.21678 14.3988C4.29939 13.9769 4.22777 13.5445 4.01078 13.1686C3.79375 12.7927 3.44833 12.5142 3.04846 12.3759V7.62345C3.44833 7.48504 3.79375 7.20656 4.01078 6.83067C4.22777 6.45482 4.29939 6.02238 4.21678 5.60051L8.33207 3.22454C8.64492 3.49671 9.05334 3.66169 9.49961 3.66169C9.94589 3.66169 10.3543 3.49671 10.6672 3.22454L14.7824 5.60047C14.6998 6.02235 14.7715 6.45478 14.9885 6.83063C15.2055 7.20656 15.5509 7.48504 15.9508 7.62341V12.3758C15.5509 12.5142 15.2055 12.7927 14.9885 13.1685C14.7715 13.5444 14.6998 13.9768 14.7824 14.3987L10.6672 16.7747C10.3543 16.5025 9.94585 16.3376 9.49961 16.3376Z" fill="#757575"/>
  <path d="M5.09521 8.0566V12.6137L8.91903 14.8082V10.251L5.09521 8.0566ZM13.3229 7.05187L9.49911 4.85742L5.6753 7.05187L9.49911 9.24631L13.3229 7.05187ZM13.903 8.0566L10.0792 10.251V14.8082L13.903 12.6137V8.0566Z" fill="#757575"/>
</svg>