<svg xmlns="http://www.w3.org/2000/svg" width="18" height="18" viewBox="0 0 18 18" fill="none">
  <path fill-rule="evenodd" clip-rule="evenodd" d="M5.25 3.375C5.25 2.33947 6.08947 1.5 7.125 1.5C8.16053 1.5 9 2.33947 9 3.375C9 3.61682 8.95422 3.84795 8.87086 4.0602L10.1898 5.37914C10.402 5.29578 10.6332 5.25 10.875 5.25C11.1168 5.25 11.348 5.29578 11.5602 5.37914L12.8791 4.0602C12.7958 3.84795 12.75 3.61682 12.75 3.375C12.75 2.33947 13.5895 1.5 14.625 1.5C15.6605 1.5 16.5 2.33947 16.5 3.375C16.5 4.41053 15.6605 5.25 14.625 5.25C14.3832 5.25 14.152 5.20422 13.9398 5.12086L12.6209 6.4398C12.7042 6.65205 12.75 6.88318 12.75 7.125C12.75 8.16053 11.9105 9 10.875 9C9.83947 9 9 8.16053 9 7.125C9 6.88318 9.04578 6.65205 9.12914 6.4398L7.8102 5.12086C7.59795 5.20422 7.36682 5.25 7.125 5.25C6.88318 5.25 6.65205 5.20422 6.4398 5.12086L5.12086 6.4398C5.20422 6.65205 5.25 6.88318 5.25 7.125C5.25 8.16053 4.41053 9 3.375 9C2.33947 9 1.5 8.16053 1.5 7.125C1.5 6.08947 2.33947 5.25 3.375 5.25C3.61682 5.25 3.84795 5.29578 4.0602 5.37914L5.37914 4.0602C5.29578 3.84795 5.25 3.61682 5.25 3.375ZM15.75 7.5C16.1642 7.5 16.5 7.83579 16.5 8.25V15.75C16.5 16.1642 16.1642 16.5 15.75 16.5C15.3358 16.5 15 16.1642 15 15.75V8.25C15 7.83579 15.3358 7.5 15.75 7.5ZM6.75 9C7.16421 9 7.5 9.33579 7.5 9.75V15.75C7.5 16.1642 7.16421 16.5 6.75 16.5C6.33579 16.5 6 16.1642 6 15.75V9.75C6 9.33579 6.33579 9 6.75 9ZM11.25 10.5C11.6642 10.5 12 10.8358 12 11.25V15.75C12 16.1642 11.6642 16.5 11.25 16.5C10.8358 16.5 10.5 16.1642 10.5 15.75V11.25C10.5 10.8358 10.8358 10.5 11.25 10.5ZM2.25 12C2.66421 12 3 12.3358 3 12.75V15.75C3 16.1642 2.66421 16.5 2.25 16.5C1.83579 16.5 1.5 16.1642 1.5 15.75V12.75C1.5 12.3358 1.83579 12 2.25 12Z" fill="#757575"/>
</svg>