<svg xmlns="http://www.w3.org/2000/svg" width="20" height="20" viewBox="0 0 20 20" fill="none">
  <path d="M19.6986 12.419C18.363 17.7762 12.937 21.0365 7.57919 19.7006C2.22361 18.365 -1.03667 12.9387 0.299485 7.58197C1.63447 2.22419 7.06044 -1.03634 12.4166 0.299234C17.7741 1.63481 21.0341 7.0617 19.6984 12.4191L19.6985 12.419H19.6986Z" fill="#F3BA2F"/>
  <path fill-rule="evenodd" clip-rule="evenodd" d="M10.0002 6.34732L7.41072 8.93676L7.41077 8.93665L5.90416 7.42998L10.0002 3.33398L14.0975 7.43121L12.5908 8.93788L10.0002 6.34732ZM4.84022 8.49349L3.3335 10.0004L4.84011 11.5068L6.34683 10.0001L4.84022 8.49349ZM7.41072 11.0647L10.0002 13.654L12.5908 11.0635L14.0982 12.5693L14.0975 12.5701L10.0002 16.6673L5.90416 12.5713L5.90203 12.5692L7.41072 11.0647ZM15.1602 8.4943L13.6535 10.001L15.1602 11.5076L16.6669 10.0009L15.1602 8.4943Z" fill="white"/>
  <path d="M11.528 9.99858H11.5286L9.99987 8.46973L8.86989 9.59938L8.74008 9.72925L8.47235 9.99703L8.47021 9.99911L8.47235 10.0013L9.99987 11.529L11.5287 10.0002L11.5295 9.99933L11.5281 9.99858" fill="white"/>
</svg>