<svg width="32" height="32" viewBox="0 0 32 32" fill="none" xmlns="http://www.w3.org/2000/svg">
<path d="M29.8662 19.2884C28.0884 26.9328 20.444 31.644 12.7995 29.8662C5.15506 28.0884 0.355066 20.444 2.13284 12.7995C3.91062 5.15506 11.5551 0.355066 19.2884 2.13284C26.844 3.91062 31.644 11.5551 29.8662 19.2884Z" fill="#FFD475"/>
<path d="M29.8664 19.2886C27.1997 30.8442 12.3553 34.0442 5.06641 25.0664C13.2442 31.7331 25.5109 27.5553 27.9109 17.3331C28.9775 12.7997 27.7331 8.3553 25.0664 5.06641C29.0664 8.26641 31.1109 13.7775 29.8664 19.2886Z" fill="#FFB961"/>
<path opacity="0.4" d="M8.17724 6.8437C8.53279 7.55481 9.59946 6.0437 11.2884 5.15481C12.9772 4.26593 14.5772 4.4437 14.2217 3.6437C13.8661 2.8437 12.1772 3.02148 10.4884 3.91037C8.79946 4.79926 7.73279 6.13259 8.17724 6.8437Z" fill="white"/>
<path opacity="0.4" d="M15.9104 3.99933C16.3522 3.99933 16.7104 3.72075 16.7104 3.37711C16.7104 3.03346 16.3522 2.75488 15.9104 2.75488C15.4685 2.75488 15.1104 3.03346 15.1104 3.37711C15.1104 3.72075 15.4685 3.99933 15.9104 3.99933Z" fill="white"/>
<path d="M26.3107 15.8209C26.3107 21.5098 21.6885 26.132 15.9996 26.132C10.3107 26.132 5.68848 21.5098 5.68848 15.8209C5.68848 10.132 10.3107 5.50977 15.9996 5.50977C21.6885 5.59865 26.3107 10.132 26.3107 15.8209Z" fill="#F3A250"/>
<path d="M25.3327 15.8226C25.3327 20.9781 21.1549 25.1559 15.9993 25.1559C10.8438 25.1559 6.66602 20.9781 6.66602 15.8226C6.66602 10.667 10.8438 6.57812 15.9993 6.57812C21.1549 6.57812 25.3327 10.667 25.3327 15.8226Z" fill="#F45170"/>
<path d="M25.2435 16.4448C24.9768 11.5559 20.9768 7.73368 15.999 7.73368C11.0213 7.73368 7.02127 11.5559 6.66571 16.4448C6.39904 10.7559 10.8435 6.57812 15.999 6.57812C21.1546 6.57812 25.599 10.7559 25.2435 16.4448Z" fill="#CC104A"/>
<path d="M19.0213 17.2444L19.5547 20.5333C19.6436 21.0666 19.1102 21.4222 18.6658 21.1555L15.7324 19.6444C15.5547 19.5555 15.3769 19.5555 15.1991 19.6444L12.2658 21.1555C11.8213 21.4222 11.288 20.9777 11.3769 20.5333L11.9102 17.2444C11.9102 17.0666 11.9102 16.7999 11.7324 16.711L9.33244 14.3999C8.97689 14.0444 9.15466 13.4222 9.688 13.3333L12.9769 12.8888C13.1547 12.8888 13.3324 12.711 13.4213 12.5333L14.9324 9.59993C15.1991 9.15549 15.8213 9.15549 15.9991 9.59993L17.5102 12.5333C17.5991 12.711 17.7769 12.7999 17.9547 12.8888L21.2436 13.3333C21.7769 13.4222 21.9547 14.0444 21.5991 14.3999L19.1991 16.711C19.0213 16.8888 19.0213 17.0666 19.0213 17.2444Z" fill="#CC104A"/>
<path d="M19.5555 17.7766L20.0888 21.0655C20.1777 21.5988 19.6444 21.9544 19.2 21.6877L16.2666 20.1766C16.0888 20.0877 15.9111 20.0877 15.7333 20.1766L12.8 21.6877C12.3555 21.9544 11.8222 21.5099 11.9111 21.0655L12.4444 17.7766C12.4444 17.5988 12.4444 17.3322 12.2666 17.2433L9.86662 14.9322C9.51107 14.5766 9.68884 13.9544 10.2222 13.8655L13.5111 13.4211C13.6888 13.4211 13.8666 13.2433 13.9555 13.0655L15.4666 10.1322C15.7333 9.68772 16.3555 9.68772 16.5333 10.1322L18.0444 13.0655C18.1333 13.2433 18.3111 13.3322 18.4888 13.4211L21.7777 13.8655C22.3111 13.9544 22.4888 14.5766 22.1333 14.9322L19.7333 17.2433C19.5555 17.3322 19.4666 17.5988 19.5555 17.7766Z" fill="#E9E7FC"/>
<path opacity="0.7" d="M10.5768 15.0219C10.2213 14.6663 10.3991 14.133 10.8435 14.0441L13.7768 13.5997C13.9546 13.5997 14.1324 13.4219 14.2213 13.333L15.5546 10.6663C15.7324 10.2219 16.3546 10.2219 16.5324 10.6663L17.8657 13.333C17.9546 13.5108 18.1324 13.5997 18.3102 13.5997L21.2435 14.0441C21.688 14.133 21.8657 14.6663 21.5102 15.0219C21.5102 15.0219 19.6435 17.0663 15.9991 17.0663C12.9768 17.0663 10.5768 15.0219 10.5768 15.0219Z" fill="#F8F9FE"/>
<path d="M16.0889 12.532C15.8222 13.1542 15.4667 13.5987 15.2 13.5098C14.9333 13.4209 14.9333 12.7987 15.2 12.1764C15.4667 11.5542 15.8222 11.1098 16.0889 11.1987C16.3556 11.2875 16.3556 11.9098 16.0889 12.532ZM23.4667 9.2431C23.2889 9.2431 23.2889 9.50977 23.4667 9.59866C24.1778 10.0431 24.7111 10.3987 24.6222 10.3987C24.6222 10.3987 24 10.132 23.2889 9.77643C23.1111 9.68754 23.0222 9.86532 23.0222 9.95421C23.3778 11.4653 23.7333 12.8875 23.5556 12.9764C23.4667 12.9764 23.0222 11.6431 22.4889 10.132C22.4 9.95421 22.2222 9.95421 22.1333 10.0431C21.6889 10.7542 21.3333 11.2875 21.3333 11.2875C21.2444 11.1987 21.6 10.6653 21.9556 9.95421C22.0444 9.77643 21.8667 9.68754 21.7778 9.68754C20.2667 10.0431 18.8444 10.3098 18.7556 10.3098C18.7556 10.2209 20.0889 9.77643 21.6 9.2431C21.7778 9.15421 21.7778 8.97643 21.6 8.88754C20.9778 8.4431 20.3556 8.08754 20.3556 8.08754C20.4444 8.08754 20.9778 8.35421 21.6889 8.70977C22.0444 8.70977 22.2222 8.62088 22.2222 8.4431C21.8667 6.93199 21.5111 5.50977 21.6 5.50977C21.6889 5.50977 22.1333 6.8431 22.6667 8.35421C22.7556 8.53199 22.9333 8.53199 23.0222 8.35421C23.4667 7.6431 23.8222 7.10977 23.8222 7.10977C23.9111 7.10977 23.5556 7.73199 23.2 8.4431C23.1111 8.62088 23.2889 8.70977 23.3778 8.70977C24.8889 8.35421 26.3111 7.99865 26.4 8.17643C26.4 8.26532 24.9778 8.70977 23.4667 9.2431Z" fill="white"/>
</svg>
