<svg width="21" height="20" viewBox="0 0 21 20" fill="none" xmlns="http://www.w3.org/2000/svg">
<path d="M3.83341 15H5.50008V18.4008L9.75091 15H13.8334C14.7526 15 15.5001 14.2525 15.5001 13.3333V6.66667C15.5001 5.7475 14.7526 5 13.8334 5H3.83341C2.91425 5 2.16675 5.7475 2.16675 6.66667V13.3333C2.16675 14.2525 2.91425 15 3.83341 15Z" fill="#BDBDBD"/>
<path d="M17.1667 1.66699H7.16667C6.2475 1.66699 5.5 2.41449 5.5 3.33366H15.5C16.4192 3.33366 17.1667 4.08116 17.1667 5.00033V11.667C18.0858 11.667 18.8333 10.9195 18.8333 10.0003V3.33366C18.8333 2.41449 18.0858 1.66699 17.1667 1.66699Z" fill="#BDBDBD"/>
</svg>
