<svg width="34" height="34" viewBox="0 0 34 34" fill="none" xmlns="http://www.w3.org/2000/svg">
<rect width="34" height="34" rx="8" fill="#177DFF"/>
<g clip-path="url(#clip0_42_612)">
<path d="M17.1943 25.3667C15.8682 25.3667 14.6878 25.2397 13.6606 24.9857C12.6297 24.7317 11.6062 24.2536 10.5864 23.5551V19.3267H13.6158L13.952 21.4969C14.191 21.7658 14.6131 21.99 15.2145 22.173C15.8197 22.356 16.4771 22.4457 17.1943 22.4457C17.6948 22.4457 18.1132 22.3859 18.4456 22.2626C18.7818 22.1394 19.0358 21.9601 19.2076 21.721C19.3794 21.482 19.4654 21.1943 19.4654 20.8619C19.4654 20.5294 19.3832 20.253 19.2263 20.0028C19.0657 19.7488 18.8042 19.5097 18.4381 19.2818C18.0721 19.054 17.579 18.8224 16.9627 18.5833C15.5694 18.1351 14.4226 17.6831 13.5299 17.2199C12.6371 16.7567 11.9685 16.2114 11.5352 15.5764C11.0982 14.9414 10.8815 14.1569 10.8815 13.2156C10.8815 12.2743 11.1393 11.5235 11.6547 10.8512C12.1702 10.1788 12.8762 9.64463 13.7802 9.25616C14.6804 8.86768 15.7151 8.66223 16.8768 8.63982C18.2028 8.60994 19.3794 8.74441 20.3992 9.03577C21.4189 9.33086 22.3229 9.77537 23.1073 10.373V14.2989H20.1975L19.738 12.1174C19.484 11.9904 19.1217 11.8746 18.6548 11.77C18.1841 11.6655 17.6873 11.6132 17.1569 11.6132C16.7012 11.6132 16.2978 11.6729 15.9429 11.7925C15.5881 11.912 15.3079 12.0913 15.1025 12.3304C14.897 12.5694 14.7962 12.8682 14.7962 13.2231C14.7962 13.5145 14.8821 13.7722 15.0539 14.0001C15.2257 14.2279 15.5283 14.4558 15.9579 14.6836C16.3912 14.9115 16.9926 15.173 17.7695 15.4718C19.6185 16.0171 21.023 16.697 21.9792 17.5113C22.9392 18.3293 23.4174 19.435 23.4174 20.8395C23.4174 21.8032 23.1559 22.6212 22.6329 23.2936C22.11 23.9697 21.3853 24.4814 20.4515 24.8363C19.5177 25.1912 18.4344 25.3667 17.1943 25.3667Z" fill="white"/>
<path d="M15 7.5C15 7.22386 15.2239 7 15.5 7H18.5C18.7761 7 19 7.22386 19 7.5V10H15V7.5Z" fill="white"/>
<path d="M15 24.5C15 24.2239 15.2239 24 15.5 24H18.5C18.7761 24 19 24.2239 19 24.5V27H15V24.5Z" fill="white"/>
</g>
<defs>
<clipPath id="clip0_42_612">
<rect width="19.125" height="19.125" fill="white" transform="translate(7.4375 7.4375)"/>
</clipPath>
</defs>
</svg>
